<svg id="visual" viewBox="0 0 900 600" width="900" height="600" xmlns="http://www.w3.org/2000/svg" xmlns:xlink="http://www.w3.org/1999/xlink" version="1.1"><path d="M0 277L21.5 273.2C43 269.3 86 261.7 128.8 259.5C171.7 257.3 214.3 260.7 257.2 261.8C300 263 343 262 385.8 264.8C428.7 267.7 471.3 274.3 514.2 280.2C557 286 600 291 642.8 288.7C685.7 286.3 728.3 276.7 771.2 272.8C814 269 857 271 878.5 272L900 273L900 0L878.5 0C857 0 814 0 771.2 0C728.3 0 685.7 0 642.8 0C600 0 557 0 514.2 0C471.3 0 428.7 0 385.8 0C343 0 300 0 257.2 0C214.3 0 171.7 0 128.8 0C86 0 43 0 21.5 0L0 0Z" fill="#006195"></path><path d="M0 187L21.5 188.2C43 189.3 86 191.7 128.8 201.2C171.7 210.7 214.3 227.3 257.2 230.3C300 233.3 343 222.7 385.8 218.8C428.7 215 471.3 218 514.2 216.3C557 214.7 600 208.3 642.8 203.7C685.7 199 728.3 196 771.2 201.3C814 206.7 857 220.3 878.5 227.2L900 234L900 0L878.5 0C857 0 814 0 771.2 0C728.3 0 685.7 0 642.8 0C600 0 557 0 514.2 0C471.3 0 428.7 0 385.8 0C343 0 300 0 257.2 0C214.3 0 171.7 0 128.8 0C86 0 43 0 21.5 0L0 0Z" fill="#096fa7"></path><path d="M0 196L21.5 195.2C43 194.3 86 192.7 128.8 190.7C171.7 188.7 214.3 186.3 257.2 183.3C300 180.3 343 176.7 385.8 176.2C428.7 175.7 471.3 178.3 514.2 181.8C557 185.3 600 189.7 642.8 184.2C685.7 178.7 728.3 163.3 771.2 159.3C814 155.3 857 162.7 878.5 166.3L900 170L900 0L878.5 0C857 0 814 0 771.2 0C728.3 0 685.7 0 642.8 0C600 0 557 0 514.2 0C471.3 0 428.7 0 385.8 0C343 0 300 0 257.2 0C214.3 0 171.7 0 128.8 0C86 0 43 0 21.5 0L0 0Z" fill="#127eb9"></path><path d="M0 120L21.5 116.2C43 112.3 86 104.7 128.8 98C171.7 91.3 214.3 85.7 257.2 87.3C300 89 343 98 385.8 101.5C428.7 105 471.3 103 514.2 107.5C557 112 600 123 642.8 123.5C685.7 124 728.3 114 771.2 107.7C814 101.3 857 98.7 878.5 97.3L900 96L900 0L878.5 0C857 0 814 0 771.2 0C728.3 0 685.7 0 642.8 0C600 0 557 0 514.2 0C471.3 0 428.7 0 385.8 0C343 0 300 0 257.2 0C214.3 0 171.7 0 128.8 0C86 0 43 0 21.5 0L0 0Z" fill="#198dcb"></path><path d="M0 69L21.5 68.3C43 67.7 86 66.3 128.8 68.3C171.7 70.3 214.3 75.7 257.2 74.2C300 72.7 343 64.3 385.8 63.2C428.7 62 471.3 68 514.2 64.3C557 60.7 600 47.3 642.8 43C685.7 38.7 728.3 43.3 771.2 51.2C814 59 857 70 878.5 75.5L900 81L900 0L878.5 0C857 0 814 0 771.2 0C728.3 0 685.7 0 642.8 0C600 0 557 0 514.2 0C471.3 0 428.7 0 385.8 0C343 0 300 0 257.2 0C214.3 0 171.7 0 128.8 0C86 0 43 0 21.5 0L0 0Z" fill="#1f9cde"></path></svg>