<!--?xml version="1.0" standalone="no"?-->
              <svg id="sw-js-blob-svg" viewBox="0 0 100 100" xmlns="http://www.w3.org/2000/svg" version="1.1">
                    <defs> 
                        <linearGradient id="sw-gradient" x1="0" x2="1" y1="1" y2="0">
                            <stop id="stop1" stop-color="rgba(217.479, 240.383, 255, 1)" offset="0%"></stop>
                            <stop id="stop2" stop-color="rgba(255, 255, 255, 1)" offset="100%"></stop>
                        </linearGradient>
                    </defs>
                <path fill="url(#sw-gradient)" d="M22.7,-36.7C29,-35.6,33.6,-28.8,37,-21.8C40.4,-14.7,42.5,-7.4,41.9,-0.3C41.3,6.7,38,13.3,33,17.5C28,21.7,21.2,23.5,15.5,26.8C9.7,30.1,4.8,35.1,-0.4,35.8C-5.7,36.5,-11.4,33.1,-16.5,29.4C-21.6,25.7,-26.1,21.7,-30.8,16.7C-35.5,11.8,-40.5,5.9,-41.1,-0.4C-41.8,-6.7,-38.3,-13.4,-34.9,-20.6C-31.4,-27.7,-28.2,-35.4,-22.4,-36.9C-16.6,-38.4,-8.3,-33.7,-0.1,-33.6C8.1,-33.5,16.3,-37.9,22.7,-36.7Z" width="100%" height="100%" transform="translate(50 50)" stroke-width="0" style="transition: all 0.3s ease 0s;" stroke="url(#sw-gradient)"></path>
              </svg>